<?xml version="1.0" encoding="utf-8"?>
<!-- Generator: Adobe Illustrator 15.0.0, SVG Export Plug-In . SVG Version: 6.00 Build 0)  -->
<!DOCTYPE svg PUBLIC "-//W3C//DTD SVG 1.1//EN" "http://www.w3.org/Graphics/SVG/1.1/DTD/svg11.dtd">
<svg version="1.1" id="Layer_1" xmlns="http://www.w3.org/2000/svg" xmlns:xlink="http://www.w3.org/1999/xlink" x="0px" y="0px"
	 width="640px" height="640px" viewBox="0 0 640 640" enable-background="new 0 0 640 640" xml:space="preserve">
<g>
	<polygon fill="#F6F5F4" points="254.692,348.465 263.332,348.465 263.332,301.352 272.358,301.352 272.358,293.495 
		245.664,293.495 245.664,301.352 254.692,301.352 	"/>
	<path fill="#F6F5F4" d="M283.957,338.49h10.602l1.491,9.965h8.714l-8.795-54.961h-12.64l-8.794,54.961h7.931L283.957,338.49z
		 M289.217,303.231l4.162,27.796h-8.32L289.217,303.231z"/>
	<path fill="#F6F5F4" d="M309.006,331.896v3.371c0,8.801,4.401,13.823,12.879,13.823c8.48,0,12.879-5.022,12.879-13.823
		c0-15.705-16.882-17.827-16.882-29.126c0-3.931,1.564-5.421,4.32-5.421c2.748,0,4.312,1.491,4.312,5.421v2.28h8.167v-1.729
		c0-8.791-4.314-13.822-12.725-13.822c-8.397,0-12.718,5.028-12.718,13.822c0,15.705,16.888,17.824,16.888,29.131
		c0,3.923-1.73,5.338-4.479,5.338c-2.747,0-4.479-1.415-4.479-5.338v-3.925h-8.164L309.006,331.896L309.006,331.896z"/>
	<polygon fill="#F6F5F4" points="356.424,348.465 356.424,301.352 365.457,301.352 365.457,293.495 338.758,293.495 
		338.758,301.352 347.783,301.352 347.783,348.465 	"/>
	<polygon fill="#F6F5F4" points="394.352,301.352 394.352,293.495 370.794,293.495 370.794,348.465 394.352,348.465 
		394.352,340.607 379.432,340.607 379.432,324.516 391.289,324.516 391.289,316.662 379.432,316.662 379.432,301.352 	"/>
	<path fill="#F6F5F4" d="M430.513,326.023c0.029-0.196,0.067-0.246,0.148-0.351c0.251-0.344,0.321-0.78,0.202-1.188l-0.034-0.137
		c0.079-0.279,0.115-0.582,0.153-0.882c0.127-0.336,0.107-0.704-0.038-1.022c-0.012-0.18,0.002-0.418,0.01-0.646
		c0.007-0.288,0.021-0.562,0.007-0.82c0.055-0.131,0.1-0.271,0.108-0.422c0.055-0.573-0.034-0.9-0.103-1.375l0.108-0.931
		c0.033-0.219,0-0.441-0.079-0.642c0.021-0.181,0.021-0.396-0.021-0.62c0.033-0.566,0.015-1.026-0.016-1.599
		c0.066-0.384,0.057-0.734,0.057-1.042c-0.008-0.316-0.015-0.565,0.06-0.844c0.05-0.198,0.05-0.397,0.008-0.583
		c0.022-0.072,0.034-0.147,0.042-0.226c0.04-0.313-0.021-0.631-0.183-0.896c-0.029-0.65-0.145-1.347-0.729-1.773
		c-0.119-0.291-0.309-0.556-0.614-0.739c-0.061-0.933-0.114-1.483-0.176-2.011l-0.107-1.093c-0.009-0.115-0.027-0.329-0.104-0.557
		c0.038-0.242,0.027-0.478-0.015-0.687c0.045-0.135,0.081-0.271,0.087-0.398c0.011-0.271-0.026-0.511-0.087-0.711
		c0.045-0.208,0.041-0.424-0.016-0.647c-0.087-0.288-0.128-0.482-0.176-0.812c0.028-0.517-0.045-1.297-0.333-1.778
		c-0.057-0.089-0.115-0.172-0.189-0.248c-0.081-0.474-0.176-0.942-0.254-1.388c-0.156-0.82-0.307-1.544-0.317-1.989
		c-0.012-0.148-0.035-0.292-0.084-0.428c-0.087-0.226-0.146-0.658-0.229-1.131c-0.107-0.665-0.23-1.395-0.406-1.969
		c-0.021-0.515-0.136-1.076-0.246-1.61c-0.074-0.396-0.168-0.883-0.168-1.107c0.007-0.176-0.025-0.344-0.091-0.505
		c-0.415-1.079-0.675-2.012-0.947-2.993c-0.225-0.812-0.455-1.649-0.779-2.602c0.176-0.565-0.049-1.06-0.085-1.074
		c-0.181-0.823-0.358-1.316-0.561-1.878l-0.288-0.85c-0.077-0.216-0.209-0.479-0.37-0.635c-0.082-0.147-0.175-0.309-0.304-0.469
		l-0.691-1.931c-0.982-2.801-2.107-5.973-3.42-8.378c-0.067-0.126-0.15-0.237-0.251-0.328c-0.126-0.286-0.325-0.709-0.716-0.958
		c-1.923-3.868-4.009-7.386-6.618-11.194l-1.25-1.567c-3.411-4.649-7.291-9.199-11.706-13.682c-1.373-2.198-4.608-4.668-5.576-5.371
		c-0.345-0.259-0.78-0.325-1.172-0.209c-0.411-0.376-0.783-0.716-1.146-0.963c-0.234-0.293-0.563-0.571-0.986-0.902l-0.189-0.154
		c-0.062-0.085-0.134-0.161-0.224-0.237l-0.537-0.472c-0.505-0.446-0.884-0.787-1.261-0.971l-0.464-0.337
		c-0.424-0.315-0.803-0.6-1.172-0.802c-0.406-0.46-0.934-0.775-1.383-1.006c-0.086-0.093-0.188-0.184-0.287-0.26
		c-0.123-0.175-0.288-0.322-0.489-0.425c-0.176-0.092-0.376-0.23-0.593-0.367c-0.228-0.151-0.455-0.299-0.671-0.413
		c-0.24-0.261-0.557-0.485-0.9-0.722c-0.142-0.105-0.294-0.206-0.399-0.288c-0.196-0.32-0.489-0.531-0.889-0.583
		c-0.106-0.038-0.205-0.119-0.323-0.192c-0.307-0.195-0.718-0.466-1.321-0.719c-0.16-0.15-0.359-0.332-0.735-0.525
		c-0.146-0.071-0.311-0.119-0.472-0.134l0.016-0.038c-0.186-0.104-0.375-0.217-0.597-0.3c-0.541-0.406-1.25-0.819-2.008-1.247
		c-0.012-0.457-0.258-0.891-0.68-1.132l-2.558-1.443c-0.03-0.019-0.062-0.041-0.098-0.054c-0.25-0.115-0.537-0.263-0.845-0.419
		c-0.987-0.504-2.093-1.066-3.011-1.224c-0.389-0.066-0.758,0.031-1.042,0.252c-0.09-0.04-0.176-0.08-0.258-0.123l-1.057-0.582
		c-1.813-0.877-3.422-1.486-4.823-1.822c-0.877-0.421-1.429-0.583-2.071-0.771l-0.446-0.131c-0.157-0.088-0.33-0.16-0.518-0.234
		c-0.134-0.114-0.299-0.207-0.479-0.261l-2.303-0.693c-0.176-0.159-0.479-0.345-0.921-0.352c-0.321-0.183-0.603-0.259-0.855-0.328
		c-0.142-0.036-0.31-0.079-0.834-0.239l-1.096-0.128c-0.312-0.141-0.599-0.167-0.746-0.119c-0.202-0.202-0.469-0.333-0.758-0.375
		c-1.118-0.15-2.238-0.407-3.166-0.671c-0.153-0.222-0.383-0.397-0.639-0.5c-0.756-0.276-1.276-0.313-1.602-0.151
		c-0.736-0.166-1.325-0.271-2.05-0.375c-0.198-0.384-0.592-0.644-1.025-0.7c-0.631-0.071-1.086-0.179-1.544-0.288
		c-0.074-0.013-0.146-0.031-0.219-0.05c0.038-0.616-0.354-1.18-0.941-1.371l-0.892-0.279c-0.292-0.092-0.617-0.08-0.906,0.035
		c-0.119-0.021-0.267-0.049-0.414-0.075c-0.891-0.151-1.59-0.27-2.192,0.216c-0.105,0.083-0.2,0.189-0.279,0.309
		c-0.324-0.031-0.697-0.067-1.112-0.104l-0.006,0.014c-0.953-0.168-2.564-0.085-3.114,0.459c-0.127,0.126-0.227,0.278-0.292,0.435
		c-0.031,0.003-0.074,0.011-0.107,0.014c-0.327-0.061-0.646-0.051-0.837-0.057c-0.081,0-0.213,0-0.233,0.002
		c-0.208-0.089-0.437-0.133-0.678-0.104c-0.686,0.069-1.752,0.011-2.706-0.048c-0.743-0.038-1.437-0.069-1.912-0.061
		c-1.244,0.04-1.961,0.103-2.613,0.16c-0.608,0.052-1.159,0.1-2.266,0.135c-0.879,0.141-1.758,0.169-2.688,0.206
		c-1.677,0.061-3.584,0.132-5.734,0.737c-1.133,0.144-2.406,0.342-3.779,0.596c-0.025-0.021-0.046-0.047-0.067-0.076
		c-0.273-0.281-0.639-0.45-1.045-0.417c-1.211,0.057-2.761,0.438-4.555,0.95c-0.163,0.08-0.424,0.144-0.706,0.219
		c-0.748,0.208-1.524,0.424-2.064,0.874c-0.151,0.125-0.267,0.275-0.349,0.446c-1.259,0.341-2.51,0.706-3.72,1.081
		c-0.483-0.198-0.993-0.051-1.235,0.026c-0.032,0.007-0.063,0.015-0.091,0.026l-1.111,0.409c-0.626,0.263-1.169,0.463-1.665,0.651
		c-0.821,0.305-1.513,0.563-2.182,0.92c-0.218,0.115-0.396,0.28-0.517,0.477c-0.684,0.291-1.402,0.544-2.14,0.797
		c-1.34,0.468-2.723,0.957-4.106,1.724l-7.438,3.792c-0.333,0.193-0.677,0.438-1.016,0.675c-0.326,0.233-0.821,0.583-0.962,0.629
		c-0.189,0.022-0.393,0.108-0.564,0.215c-0.221,0.011-0.444,0.083-0.642,0.207l-3.299,2.073c-0.98,0.47-1.315,0.933-1.439,1.26
		c-0.336,0.26-0.586,0.464-0.655,0.54l-2.599,2.003l-1.303,0.902c-2.749,1.947-5.103,4.298-6.994,6.178
		c-1.02,1.021-1.924,1.926-2.737,2.608l-0.596,0.515c-0.01-0.003-0.021-0.003-0.034-0.007c-0.47-0.091-0.93,0.083-1.242,0.438
		l-1.793,2.031c-0.402,0.456-0.448,1.128-0.108,1.643c0.134,0.196,0.332,0.362,0.555,0.477c0.216,0.349,0.578,0.586,0.991,0.637
		c0.421,0.054,0.86-0.111,1.153-0.427c3.031-3.294,6.411-6.854,11.541-10.856c0.129-0.102,0.237-0.223,0.319-0.36
		c0.09-0.069,0.2-0.155,0.316-0.233c0.302-0.222,0.579-0.428,0.792-0.669c0.792-0.486,1.714-1.234,2.533-1.91
		c0.484-0.391,0.887-0.729,1.243-0.943c1.086-0.752,1.836-1.211,2.63-1.697c0.493-0.302,1.007-0.618,1.635-1.026
		c0.782,0.034,1.064-0.377,1.33-0.606c0.123-0.125,0.347-0.254,0.589-0.389c0.34-0.19,0.741-0.414,1.084-0.769l0.004,0.006
		c0.221-0.076,0.523-0.18,0.937-0.455c0.218-0.141,0.372-0.338,0.466-0.562c0.099-0.055,0.203-0.114,0.3-0.17
		c0.265,0.018,0.653-0.049,1.038-0.241c0.182-0.089,0.337-0.19,0.463-0.291c0.203-0.057,0.428-0.144,0.695-0.287
		c0.243-0.163,0.579-0.306,0.964-0.481c0.463-0.213,0.986-0.45,1.484-0.73c0.271-0.134,0.489-0.31,0.639-0.528
		c0.319-0.132,0.6-0.277,0.902-0.438c0.176-0.089,0.354-0.191,0.597-0.305c0.424,0.017,0.859-0.217,0.958-0.282
		c0.642-0.261,0.968-0.481,1.199-0.642c0.126-0.083,0.204-0.134,0.331-0.192c0.354-0.018,0.568-0.085,0.902-0.208l0.972-0.344
		c0.146-0.045,0.417-0.132,0.673-0.3c0.152-0.021,0.289-0.05,0.4-0.112c0.026-0.017,0.052-0.035,0.084-0.056
		c0.267-0.048,0.491-0.15,0.597-0.196l1.438-0.565c1.998-0.783,3.569-1.402,5.193-1.767l1.856-0.579
		c0.391-0.097,0.771-0.192,1.175-0.281c0.653-0.15,1.341-0.311,2.11-0.533c0.06-0.017,0.452-0.161,0.509-0.181
		c0.294-0.009,0.567-0.108,0.792-0.278c0.238-0.034,0.481-0.086,0.737-0.141c0.082,0,0.168-0.013,0.254-0.031
		c1.698-0.396,3.744-0.734,5.637-1.045c1.731-0.287,3.341-0.558,4.182-0.788c1.583-0.038,3.556-0.179,5.524-0.322
		c2.396-0.178,4.747-0.385,6.218-0.354l0.449,0.089c0.119,0.033,0.245,0.04,0.379,0.033l0.49-0.054l6.26,0.309
		c6.423,0.302,18.103,2.467,24.743,5.126l1.018,0.275c5.786,1.887,12.896,5.211,19.544,9.132c1.982,1.104,3.7,2.339,5.229,3.437
		c0.738,0.535,1.434,1.039,2.016,1.422l1.495,1.175c1.53,1.024,2.354,1.748,3.504,2.885c2.743,2.286,5.878,4.963,8.443,7.859
		c2.974,2.866,5.054,5.466,7.259,8.218l1.349,1.686c0.82,0.92,1.466,2.022,2.099,3.091c0.418,0.7,0.824,1.379,1.253,2.002
		l2.039,3.093c3.207,5.892,7.469,14.975,9.588,24.843c0.09,0.405,0.204,0.646,0.378,1.081l0.393,1.743
		c4.366,19.319,4.001,36.026-1.138,52.562c-0.125,0.229-0.231,0.479-0.327,0.718c-0.051,0.111-0.092,0.224-0.133,0.312
		c-0.149,0.15-0.262,0.334-0.332,0.548l-0.564,1.743c-0.209,0.647-0.405,1.262-0.598,1.854l-7.95,16.862
		c-1.655,2.778-3.571,5.86-5.69,8.401c-1.334,1.857-3.002,3.723-4.933,5.888l-1.764,1.985c-0.3,0.299-0.441,0.536-0.708,0.918
		l-3.037,3.09c-0.847,0.94-1.681,1.675-2.572,2.445c-0.506,0.436-1,0.875-1.499,1.348l-1.438,0.816
		c-0.509,0.406-1.073,0.831-1.644,1.26c-1.115,0.847-2.245,1.688-2.923,2.348c-0.111,0.097-0.161,0.113-0.298,0.181
		c-0.18,0.072-0.364,0.161-0.69,0.381c-3.595,2.911-7.785,5.518-11.479,7.817l-0.476,0.311c-1.307,0.596-4.413,2.151-6.342,3.265
		l-2.386,0.973c-11.185,5.53-24.519,7.407-33.734,8.012c-9.97,0.644-20.762-1.174-26.316-2.315
		c-3.65-0.867-8.648-2.051-11.756-3.222c-4.942-1.771-7.397-2.887-8.493-3.446c-1.235-0.771-2.46-1.32-3.646-1.843
		c-0.822-0.363-1.657-0.732-2.608-1.262c-0.189-0.183-0.417-0.381-0.772-0.539l-7.015-4.161c-0.177-0.206-0.385-0.422-0.713-0.604
		c-4.242-3.16-7.614-5.921-10.19-8.332c-0.521-0.623-1.249-1.287-2.013-1.964c-0.83-0.743-1.688-1.515-2.321-2.33l-0.578-0.632
		c-3.332-3.615-5.167-5.607-8.345-10.034c-0.106-0.25-0.244-0.515-0.509-0.781l-0.728-0.959c-1.017-1.329-1.751-2.284-2.733-3.954
		c-0.593-1.148-1.18-2.07-2.033-3.41l-0.892-1.41c-0.617-1.082-1.369-2.726-2.299-5.026c-0.129-0.245-0.262-0.527-0.395-0.808
		c-0.247-0.521-0.488-1.016-0.748-1.416c-0.089-0.416-0.302-0.852-0.542-1.351c-0.133-0.28-0.281-0.554-0.374-0.884
		c-0.421-1.153-0.867-2.331-1.312-3.51c-1.228-3.26-2.497-6.633-3.216-9.476c-0.087-0.483-0.169-0.973-0.416-1.726
		c-0.226-0.588-0.36-0.989-0.497-1.397c-0.152-0.44-0.294-0.891-0.505-1.411l-1.292-4.576c-0.615-2.19-1.193-4.225-1.825-6.543
		c0.097-0.656-0.017-1.303-0.123-1.879l-0.083-0.517c-0.024-0.158-0.076-0.313-0.154-0.455l-0.557-1.008
		c-0.03-0.378-0.102-0.646-0.177-0.901c-0.046-0.15-0.065-0.208-0.072-0.377c-0.024-0.518-0.244-0.909-0.717-1.111
		c-0.182-0.165-0.487-0.874-0.662-1.304c-0.143-0.335-0.291-0.672-0.442-0.98c-0.076-0.144-0.172-0.277-0.292-0.389
		c-0.93-0.856-2.033-1.396-3.281-1.597l-0.343-0.357c-0.257-0.256-0.868-0.404-1.238-0.404h-0.011
		c-0.518,0.027-0.521,0.004-0.741-0.169c-0.174-0.13-0.377-0.22-0.596-0.255c-0.848-0.137-1.508,0.155-1.945,0.344
		c-0.14,0.065-0.333,0.148-0.398,0.148c-0.524,0.011-0.994,0.322-1.207,0.797c-0.13,0.298-0.306,0.505-0.551,0.787l-0.378,0.463
		c-0.116,0.155-0.203,0.336-0.243,0.528l-0.584,2.758c-0.028,0.852-0.085,1.719-0.147,2.605c-0.153,2.411-0.318,4.911-0.034,7.494
		c0.206,1.351,0.315,2.631,0.413,3.804c0.089,1.1,0.181,2.104,0.32,2.982c0.264,1.943,0.679,3.576,1.078,5.154
		c0.287,1.133,0.574,2.279,0.876,3.772c0.013,0.04,0.15,0.366,0.166,0.407c0.061,0.141,0.089,0.193,0.125,0.369
		c0.718,3.603,1.516,5.735,2.809,9.062c1.272,4.686,3.486,9.396,5.366,13.202c0.43,1.651,1.752,3.719,3.151,5.901
		c0.823,1.283,1.649,2.574,2.314,3.842l0.701,1.08c1.157,1.805,2.361,3.67,3.537,4.898c0.858,1.48,2.511,3.746,3.453,4.862
		c0.607,0.957,1.386,1.864,2.142,2.737c0.452,0.525,0.902,1.053,1.348,1.629c3.897,4.498,7.795,8.303,11.521,11.264
		c4.854,4.263,9.815,7.833,16.05,11.552c3.742,2.38,7.931,4.283,11.409,5.854c11.167,5.138,16.862,6.8,29.079,8.485
		c0.312,0.034,0.698,0.05,1.137,0.05c1.348,0,3.211-0.137,5.141-0.288c1.87-0.139,3.762-0.274,5.026-0.283
		c2.996,0.24,6.565-0.419,9.713-0.988c1.56-0.288,3.053-0.562,4.267-0.702l2.414-0.075l1.915-0.208l1.03,0.007
		c0.034,0,0.343-0.039,0.37-0.039c0.176-0.032,0.497-0.09,0.821-0.114c3.483-0.428,7.026-1.104,10.16-1.702l2.741-0.521
		c1.629-0.468,3.101-0.854,4.492-1.227c3.951-1.051,7.368-1.962,11.802-3.924l3.848-1.468c0.236-0.098,0.456-0.257,0.609-0.469
		l3.756-5.18c8.551-4.296,16.184-9.076,22.232-13.974c0.099,0.033,0.203,0.07,0.312,0.089c0.073,0.008,0.168,0.008,0.221,0.016
		c0.224,0.043,0.423,0.021,0.62-0.041c0.139-0.008,0.277-0.015,0.418-0.041c0.545-0.078,0.833-0.308,1.057-0.814
		c0.098-0.07,0.196-0.153,0.274-0.25c0.127-0.153,0.225-0.376,0.284-0.614c0.172-0.203,0.329-0.463,0.497-0.814
		c0.299-0.197,0.591-0.44,0.876-0.743c0.185-0.197,0.322-0.429,0.438-0.754c0.216,0.043,0.443,0.029,0.643-0.026
		c0.237-0.062,0.446-0.194,0.611-0.372c0.331-0.352,0.541-0.992,0.456-1.501c0.131-0.506,0.188-1.074,0.231-1.644
		c0.021-0.058,0.028-0.117,0.031-0.188c0.126-0.128,0.271-0.28,0.396-0.448c0.15-0.066,0.298-0.162,0.424-0.281
		c0.609-0.597,1.12-1.039,1.594-1.396c0.243-0.18,0.281-0.143,0.358-0.429c0.118-0.158,0.375-0.364,0.618-0.581
		c0.834-0.737,1.98-1.753,1.157-2.93c-0.226-0.324-0.599-0.537-0.989-0.57c-0.438-0.014-0.8,0.119-1.081,0.408
		c-0.109,0.115-0.22,0.233-0.33,0.332c0.126-0.151,0.298-0.334,0.462-0.51c0.022-0.024,0.055-0.033,0.077-0.06l0.292-0.354
		c0.251-0.271,0.462-0.526,0.625-0.75l0.6-0.724c0.072-0.056,0.152-0.09,0.21-0.158c1.549-1.768,3.027-3.587,4.37-5.346l0.111-0.136
		c0.008-0.016,0.015-0.028,0.021-0.043c1.834-2.416,3.386-4.699,4.389-6.504c0.134-0.248,0.19-0.521,0.164-0.78
		c0.572-0.366,0.988-1.132,1.34-1.757l0.536-0.928c0.492-0.817,0.836-1.387,1.022-1.871c0.324-0.401,0.906-1.22,1.12-1.971
		c0.145-0.152,0.271-0.402,0.338-0.598c0.068-0.221,0.278-0.613,0.505-1.066c0.253-0.5,0.526-1.05,0.736-1.546
		c0.007-0.015,0.015-0.026,0.021-0.034c0.103-0.158,0.406-0.656,0.541-1.234c0.026-0.03,0.055-0.07,0.068-0.112
		c0.229-0.422,0.312-0.704,0.295-0.791c0.295-0.317,0.53-0.608,0.442-1.038c0.162-0.326,0.509-0.999,0.102-1.701
		c-0.128-0.22-0.34-0.412-0.579-0.537c0.008-0.025,0.008-0.039,0.008-0.045c0.161-0.164,0.28-0.373,0.338-0.598
		c0.172-0.639,0.654-1.77,0.938-2.441c0.091-0.229,0.12-0.472,0.091-0.701c0.104-0.178,0.221-0.407,0.323-0.719
		c0.427-1.182,0.862-2.402,1.282-3.642c0.01-0.007,0.021-0.007,0.029-0.015c0.309-0.115,0.68-0.369,0.855-0.934
		c0.112-0.15,0.181-0.333,0.217-0.525c0.207-0.305,0.301-0.586,0.344-0.836c0.173-0.393,0.288-0.828,0.394-1.26
		c0.074-0.259,0.127-0.509,0.31-0.979c0.246-1.109,0.514-2.051,0.738-2.865l1.499-5.744c0.058-0.199,0.063-0.402,0.022-0.596
		c0.178-1.111,0.536-3.73,0.609-4.98c0.063-0.272,0.146-0.65,0.296-1.154C431.53,326.986,431.166,326.271,430.513,326.023z"/>
	<path fill="#F6F5F4" d="M237.35,259.594c0.185,0.026,0.37,0.041,0.559,0.041c1.669,0,3.141-1.113,3.593-2.735
		c0.425-0.725,0.6-1.602,0.452-2.494l-0.12-0.741c-0.3-1.811-1.762-3.1-3.716-3.122c-1.843,0.014-3.4,1.365-3.669,3.187l-0.24,1.607
		C233.899,257.381,235.299,259.284,237.35,259.594z"/>
</g>
</svg>
