<?xml version="1.0" encoding="utf-8"?>
<!-- Generator: Adobe Illustrator 15.0.0, SVG Export Plug-In . SVG Version: 6.00 Build 0)  -->
<!DOCTYPE svg PUBLIC "-//W3C//DTD SVG 1.1//EN" "http://www.w3.org/Graphics/SVG/1.1/DTD/svg11.dtd">
<svg version="1.1" id="Layer_1" xmlns="http://www.w3.org/2000/svg" xmlns:xlink="http://www.w3.org/1999/xlink" x="0px" y="0px"
	 width="72.85px" height="72.5px" viewBox="0 0 72.85 72.5" enable-background="new 0 0 72.85 72.5" xml:space="preserve">
<g>
	<polygon fill="#3A3A3A" points="15.305,45.406 18.098,45.406 18.098,30.17 21.017,30.17 21.017,27.63 12.385,27.63 12.385,30.17 
		15.305,30.17 	"/>
	<path fill="#3A3A3A" d="M24.768,42.182h3.429l0.481,3.223h2.818l-2.844-17.773h-4.087l-2.845,17.773h2.565L24.768,42.182z
		 M26.469,30.777l1.347,8.99h-2.69L26.469,30.777z"/>
	<path fill="#3A3A3A" d="M32.87,40.049v1.09c0,2.848,1.423,4.471,4.167,4.471c2.74,0,4.164-1.623,4.164-4.471
		c0-5.078-5.46-5.765-5.46-9.419c0-1.271,0.506-1.753,1.398-1.753c0.889,0,1.395,0.482,1.395,1.753v0.737h2.641v-0.559
		c0-2.844-1.395-4.471-4.115-4.471c-2.716,0-4.113,1.626-4.113,4.471c0,5.078,5.46,5.764,5.46,9.42c0,1.27-0.559,1.728-1.447,1.728
		c-0.888,0-1.449-0.458-1.449-1.728v-1.27H32.87z"/>
	<polygon fill="#3A3A3A" points="48.204,45.406 48.204,30.17 51.126,30.17 51.126,27.63 42.491,27.63 42.491,30.17 45.409,30.17 
		45.409,45.406 	"/>
	<polygon fill="#3A3A3A" points="60.47,30.17 60.47,27.63 52.851,27.63 52.851,45.406 60.47,45.406 60.47,42.865 55.646,42.865 
		55.646,37.661 59.48,37.661 59.48,35.122 55.646,35.122 55.646,30.17 	"/>
	<path fill="#3A3A3A" d="M72.163,38.148c0.01-0.062,0.02-0.078,0.049-0.112c0.08-0.111,0.104-0.252,0.064-0.384l-0.012-0.045
		c0.025-0.09,0.037-0.188,0.051-0.285c0.041-0.107,0.033-0.228-0.014-0.33c-0.004-0.059,0-0.135,0.002-0.209
		c0.002-0.094,0.01-0.182,0.002-0.266c0.02-0.043,0.033-0.089,0.035-0.138c0.02-0.185-0.012-0.291-0.029-0.444l0.031-0.301
		c0.014-0.07,0-0.143-0.023-0.208c0.008-0.059,0.008-0.128-0.006-0.2c0.012-0.183,0.004-0.332-0.008-0.517
		c0.021-0.124,0.021-0.237,0.021-0.337c-0.002-0.104-0.006-0.184,0.018-0.273c0.018-0.063,0.018-0.128,0.004-0.188
		c0.006-0.023,0.01-0.047,0.014-0.073c0.012-0.101-0.008-0.204-0.059-0.289c-0.01-0.21-0.047-0.437-0.236-0.573
		c-0.039-0.094-0.1-0.18-0.199-0.238c-0.02-0.303-0.037-0.479-0.057-0.651l-0.035-0.354c-0.002-0.037-0.01-0.105-0.033-0.18
		c0.012-0.078,0.008-0.154-0.006-0.222c0.016-0.044,0.027-0.088,0.029-0.129c0.002-0.087-0.008-0.165-0.029-0.23
		c0.016-0.067,0.014-0.137-0.004-0.209c-0.029-0.093-0.041-0.155-0.057-0.263c0.008-0.167-0.016-0.419-0.107-0.575
		c-0.02-0.028-0.037-0.056-0.062-0.081c-0.023-0.152-0.057-0.305-0.082-0.449c-0.051-0.266-0.098-0.5-0.102-0.644
		c-0.004-0.047-0.012-0.095-0.027-0.138c-0.029-0.073-0.049-0.213-0.074-0.366c-0.033-0.216-0.074-0.451-0.131-0.636
		c-0.008-0.168-0.045-0.349-0.08-0.521c-0.021-0.128-0.055-0.286-0.055-0.357c0.002-0.058-0.008-0.112-0.029-0.164
		c-0.135-0.35-0.219-0.651-0.307-0.969c-0.072-0.263-0.146-0.533-0.252-0.841c0.057-0.183-0.016-0.343-0.027-0.347
		c-0.059-0.268-0.115-0.426-0.182-0.608l-0.094-0.274c-0.023-0.07-0.068-0.154-0.119-0.205c-0.027-0.049-0.057-0.1-0.098-0.151
		l-0.225-0.625c-0.316-0.905-0.682-1.933-1.105-2.709c-0.021-0.041-0.049-0.077-0.082-0.106c-0.039-0.092-0.104-0.229-0.23-0.31
		c-0.621-1.251-1.297-2.389-2.141-3.62l-0.404-0.507c-1.104-1.504-2.357-2.976-3.785-4.424c-0.443-0.711-1.49-1.511-1.803-1.737
		c-0.111-0.083-0.254-0.105-0.379-0.066c-0.133-0.123-0.254-0.231-0.371-0.312c-0.076-0.095-0.182-0.186-0.318-0.292l-0.061-0.05
		c-0.021-0.028-0.043-0.053-0.072-0.077l-0.174-0.153C58.536,8.04,58.413,7.93,58.292,7.87l-0.15-0.109
		c-0.137-0.102-0.26-0.194-0.379-0.259c-0.131-0.148-0.303-0.251-0.447-0.326c-0.027-0.029-0.061-0.059-0.094-0.084
		c-0.039-0.057-0.092-0.104-0.158-0.138c-0.057-0.03-0.121-0.074-0.191-0.119c-0.072-0.049-0.146-0.097-0.217-0.134
		c-0.078-0.084-0.18-0.157-0.291-0.233C56.32,6.434,56.269,6.4,56.236,6.375c-0.064-0.104-0.158-0.172-0.289-0.188
		c-0.033-0.014-0.064-0.039-0.104-0.062c-0.1-0.062-0.232-0.15-0.426-0.232c-0.053-0.049-0.117-0.106-0.238-0.17
		C55.13,5.7,55.077,5.684,55.027,5.68l0.004-0.012c-0.059-0.033-0.121-0.07-0.193-0.098c-0.174-0.131-0.404-0.264-0.646-0.402
		c-0.006-0.146-0.084-0.289-0.223-0.366l-0.826-0.467c-0.01-0.006-0.02-0.013-0.029-0.019c-0.082-0.037-0.176-0.084-0.273-0.135
		c-0.32-0.162-0.678-0.345-0.975-0.396c-0.125-0.021-0.244,0.01-0.336,0.081c-0.029-0.014-0.059-0.025-0.084-0.039l-0.344-0.188
		c-0.586-0.285-1.104-0.48-1.559-0.59c-0.283-0.136-0.463-0.188-0.67-0.249l-0.145-0.043C48.677,2.73,48.62,2.708,48.56,2.684
		c-0.043-0.037-0.096-0.067-0.154-0.084l-0.744-0.226c-0.057-0.052-0.154-0.112-0.299-0.113c-0.104-0.06-0.193-0.084-0.275-0.106
		c-0.047-0.012-0.1-0.024-0.27-0.076l-0.355-0.042c-0.1-0.045-0.193-0.054-0.24-0.039c-0.064-0.065-0.15-0.108-0.246-0.121
		c-0.359-0.048-0.723-0.132-1.021-0.217c-0.049-0.072-0.123-0.128-0.207-0.162c-0.244-0.089-0.412-0.101-0.516-0.05
		c-0.238-0.053-0.432-0.088-0.664-0.12c-0.064-0.125-0.191-0.209-0.332-0.228c-0.203-0.022-0.352-0.058-0.498-0.093
		c-0.023-0.005-0.047-0.01-0.07-0.016c0.012-0.199-0.115-0.382-0.305-0.443l-0.289-0.09c-0.096-0.028-0.199-0.024-0.293,0.013
		c-0.039-0.008-0.086-0.018-0.137-0.025c-0.285-0.049-0.514-0.086-0.709,0.07c-0.031,0.026-0.062,0.062-0.09,0.101
		c-0.104-0.011-0.225-0.022-0.357-0.034l-0.002,0.005c-0.311-0.054-0.83-0.028-1.01,0.147c-0.041,0.041-0.07,0.091-0.094,0.142
		c-0.01,0.001-0.021,0.004-0.035,0.005c-0.104-0.02-0.209-0.017-0.27-0.02c-0.025,0-0.068,0-0.074,0.002
		c-0.068-0.029-0.141-0.043-0.219-0.034c-0.225,0.022-0.568,0.003-0.877-0.015c-0.24-0.014-0.463-0.022-0.619-0.021
		c-0.402,0.013-0.633,0.033-0.844,0.052c-0.197,0.018-0.375,0.032-0.733,0.043c-0.285,0.045-0.568,0.055-0.869,0.067
		c-0.542,0.021-1.159,0.043-1.854,0.237c-0.366,0.047-0.778,0.111-1.223,0.193c-0.008-0.007-0.015-0.016-0.021-0.025
		c-0.088-0.09-0.207-0.145-0.338-0.135c-0.393,0.02-0.894,0.143-1.474,0.308c-0.052,0.024-0.137,0.046-0.228,0.071
		c-0.242,0.067-0.493,0.137-0.667,0.283c-0.049,0.039-0.086,0.088-0.112,0.144c-0.408,0.11-0.812,0.228-1.203,0.35
		c-0.155-0.063-0.32-0.017-0.398,0.009c-0.011,0.002-0.021,0.004-0.029,0.008l-0.36,0.132c-0.201,0.085-0.377,0.149-0.537,0.21
		c-0.266,0.099-0.489,0.183-0.706,0.298c-0.07,0.037-0.128,0.09-0.167,0.153c-0.222,0.095-0.454,0.177-0.692,0.259
		c-0.434,0.151-0.881,0.309-1.328,0.558l-2.405,1.227c-0.107,0.062-0.219,0.143-0.329,0.219c-0.105,0.076-0.266,0.188-0.312,0.203
		c-0.062,0.007-0.127,0.035-0.184,0.07c-0.07,0.002-0.144,0.026-0.208,0.065L19,6.463c-0.317,0.152-0.425,0.303-0.466,0.407
		c-0.108,0.084-0.189,0.149-0.212,0.175l-0.841,0.648L17.06,7.984c-0.889,0.631-1.649,1.392-2.262,1.998
		c-0.33,0.33-0.623,0.623-0.885,0.845l-0.193,0.167c-0.003-0.001-0.007-0.001-0.011-0.002c-0.152-0.029-0.301,0.027-0.402,0.142
		l-0.58,0.657c-0.13,0.146-0.145,0.365-0.035,0.531c0.043,0.062,0.107,0.117,0.181,0.154c0.069,0.112,0.187,0.188,0.319,0.205
		c0.137,0.019,0.278-0.035,0.373-0.138c0.98-1.065,2.073-2.216,3.732-3.511C17.34,9,17.374,8.961,17.4,8.917
		c0.029-0.022,0.065-0.05,0.103-0.076C17.6,8.77,17.69,8.703,17.759,8.625c0.256-0.157,0.554-0.398,0.819-0.618
		c0.156-0.126,0.286-0.235,0.401-0.305c0.353-0.243,0.595-0.392,0.852-0.55c0.159-0.098,0.325-0.199,0.527-0.33
		c0.253,0.011,0.345-0.122,0.431-0.196c0.04-0.041,0.111-0.083,0.19-0.125c0.11-0.062,0.24-0.133,0.352-0.249l0.001,0.002
		c0.071-0.023,0.169-0.059,0.303-0.146c0.07-0.047,0.12-0.11,0.151-0.183c0.031-0.018,0.065-0.036,0.097-0.055
		c0.086,0.006,0.211-0.017,0.336-0.078c0.059-0.028,0.109-0.062,0.149-0.095c0.065-0.02,0.139-0.047,0.225-0.094
		c0.078-0.052,0.188-0.099,0.312-0.155c0.148-0.068,0.318-0.146,0.479-0.236c0.087-0.043,0.158-0.101,0.207-0.171
		c0.104-0.043,0.194-0.089,0.292-0.143c0.058-0.028,0.115-0.062,0.193-0.099c0.137,0.005,0.278-0.069,0.31-0.091
		c0.208-0.085,0.313-0.156,0.389-0.208c0.041-0.026,0.064-0.043,0.105-0.062c0.114-0.006,0.185-0.028,0.292-0.067l0.314-0.11
		c0.048-0.016,0.135-0.043,0.218-0.098c0.049-0.006,0.093-0.016,0.129-0.036c0.008-0.006,0.017-0.012,0.027-0.019
		c0.086-0.016,0.158-0.049,0.192-0.062l0.465-0.183c0.646-0.253,1.154-0.454,1.681-0.572l0.6-0.187
		c0.126-0.031,0.25-0.062,0.38-0.092c0.211-0.049,0.435-0.1,0.683-0.172c0.019-0.005,0.146-0.052,0.165-0.059
		c0.095-0.003,0.184-0.035,0.256-0.09c0.077-0.012,0.156-0.028,0.238-0.045c0.025,0,0.054-0.004,0.081-0.01
		C31.151,2.51,31.813,2.4,32.425,2.3c0.562-0.093,1.081-0.181,1.354-0.255c0.512-0.013,1.149-0.059,1.786-0.104
		c0.775-0.058,1.535-0.125,2.013-0.114l0.145,0.028c0.039,0.012,0.08,0.014,0.123,0.012l0.158-0.018l2.025,0.1
		c2.074,0.098,5.854,0.797,8,1.658l0.33,0.088c1.869,0.61,4.17,1.686,6.318,2.953c0.643,0.357,1.197,0.756,1.691,1.111
		c0.238,0.174,0.463,0.336,0.65,0.46l0.484,0.38c0.494,0.331,0.762,0.565,1.133,0.934c0.887,0.738,1.9,1.604,2.73,2.541
		c0.963,0.927,1.635,1.769,2.348,2.658l0.436,0.545c0.266,0.297,0.475,0.654,0.68,1c0.135,0.227,0.266,0.445,0.404,0.646l0.66,1
		c1.037,1.905,2.414,4.842,3.1,8.034c0.029,0.131,0.066,0.208,0.123,0.349l0.127,0.563c1.412,6.247,1.293,11.651-0.367,16.997
		c-0.041,0.074-0.076,0.154-0.107,0.232c-0.016,0.036-0.027,0.072-0.043,0.102c-0.047,0.049-0.084,0.107-0.105,0.178l-0.182,0.562
		c-0.068,0.209-0.133,0.408-0.193,0.601l-2.57,5.453c-0.537,0.897-1.156,1.896-1.842,2.717c-0.432,0.601-0.971,1.203-1.594,1.903
		l-0.57,0.643c-0.098,0.098-0.143,0.174-0.23,0.296l-0.982,1c-0.273,0.306-0.543,0.541-0.832,0.791
		c-0.162,0.142-0.322,0.282-0.484,0.437l-0.465,0.264c-0.164,0.132-0.348,0.27-0.531,0.407c-0.359,0.272-0.727,0.546-0.943,0.76
		c-0.035,0.031-0.055,0.036-0.098,0.058c-0.059,0.023-0.115,0.053-0.225,0.123c-1.162,0.941-2.518,1.785-3.711,2.529l-0.154,0.1
		c-0.422,0.192-1.426,0.695-2.049,1.056l-0.77,0.315c-3.617,1.787-7.932,2.396-10.91,2.59c-3.226,0.207-6.714-0.379-8.51-0.748
		c-1.182-0.28-2.797-0.664-3.803-1.043c-1.598-0.571-2.393-0.933-2.747-1.114c-0.398-0.249-0.796-0.427-1.179-0.595
		c-0.267-0.119-0.536-0.237-0.844-0.408c-0.062-0.059-0.136-0.123-0.25-0.176l-2.27-1.346c-0.057-0.066-0.125-0.136-0.229-0.195
		c-1.372-1.021-2.463-1.914-3.296-2.693c-0.168-0.201-0.403-0.416-0.65-0.635c-0.27-0.24-0.546-0.49-0.751-0.754l-0.188-0.205
		c-1.077-1.168-1.671-1.812-2.698-3.244c-0.035-0.08-0.079-0.166-0.165-0.254l-0.235-0.309c-0.329-0.431-0.566-0.738-0.884-1.279
		c-0.192-0.371-0.381-0.67-0.657-1.104l-0.289-0.456c-0.2-0.35-0.442-0.881-0.744-1.625c-0.042-0.079-0.085-0.171-0.128-0.261
		c-0.08-0.169-0.158-0.328-0.242-0.458c-0.028-0.136-0.098-0.274-0.175-0.437c-0.043-0.092-0.091-0.181-0.121-0.287
		c-0.136-0.373-0.28-0.754-0.424-1.135c-0.397-1.055-0.808-2.146-1.04-3.063c-0.028-0.156-0.055-0.314-0.134-0.558
		c-0.073-0.19-0.116-0.32-0.161-0.453c-0.049-0.144-0.095-0.287-0.164-0.457l-0.417-1.479c-0.199-0.709-0.386-1.365-0.59-2.115
		c0.031-0.214-0.006-0.422-0.04-0.607l-0.027-0.166c-0.008-0.053-0.023-0.104-0.05-0.147l-0.18-0.325
		c-0.011-0.123-0.033-0.209-0.058-0.293c-0.015-0.049-0.021-0.066-0.022-0.121c-0.008-0.168-0.079-0.295-0.232-0.359
		c-0.059-0.053-0.158-0.283-0.214-0.422c-0.047-0.108-0.094-0.217-0.144-0.317c-0.024-0.047-0.057-0.09-0.095-0.125
		c-0.301-0.276-0.657-0.45-1.062-0.516l-0.111-0.116c-0.083-0.083-0.281-0.131-0.399-0.131H2.663
		c-0.167,0.009-0.17,0.001-0.24-0.055c-0.058-0.043-0.122-0.071-0.193-0.082c-0.273-0.045-0.488,0.049-0.629,0.11
		c-0.045,0.021-0.106,0.048-0.129,0.048c-0.169,0.004-0.321,0.104-0.39,0.258c-0.042,0.097-0.1,0.164-0.179,0.254l-0.122,0.15
		c-0.038,0.051-0.064,0.108-0.079,0.17l-0.188,0.893c-0.009,0.275-0.028,0.557-0.048,0.843c-0.05,0.778-0.104,1.588-0.011,2.423
		c0.065,0.438,0.102,0.852,0.134,1.23c0.028,0.354,0.058,0.681,0.104,0.965c0.085,0.628,0.221,1.156,0.35,1.666
		c0.093,0.367,0.186,0.736,0.283,1.221c0.005,0.014,0.049,0.118,0.054,0.131c0.02,0.047,0.028,0.062,0.041,0.12
		c0.231,1.165,0.489,1.854,0.909,2.931c0.41,1.517,1.127,3.041,1.734,4.271c0.141,0.534,0.567,1.203,1.02,1.909
		c0.267,0.414,0.533,0.832,0.749,1.242l0.226,0.35c0.375,0.583,0.764,1.186,1.145,1.584c0.276,0.479,0.812,1.212,1.116,1.572
		c0.196,0.31,0.448,0.603,0.692,0.885c0.146,0.171,0.292,0.341,0.436,0.527c1.262,1.453,2.521,2.685,3.727,3.643
		c1.57,1.379,3.174,2.533,5.189,3.734c1.21,0.771,2.564,1.386,3.689,1.895c3.611,1.661,5.453,2.199,9.403,2.744
		c0.101,0.011,0.226,0.016,0.368,0.016c0.436,0,1.038-0.043,1.663-0.093c0.604-0.045,1.217-0.089,1.625-0.092
		c0.969,0.077,2.124-0.136,3.141-0.319c0.504-0.093,0.988-0.182,1.381-0.227l0.781-0.025l0.619-0.066l0.332,0.002
		c0.012,0,0.109-0.012,0.121-0.012c0.057-0.013,0.158-0.029,0.266-0.037c1.127-0.14,2.27-0.357,3.285-0.551l0.887-0.17
		c0.527-0.15,1.002-0.275,1.453-0.396c1.277-0.34,2.383-0.633,3.816-1.269l1.242-0.476c0.076-0.031,0.146-0.082,0.197-0.15
		l1.213-1.676c2.768-1.389,5.234-2.936,7.191-4.52c0.031,0.013,0.066,0.022,0.1,0.029c0.023,0.002,0.057,0.002,0.072,0.006
		c0.072,0.014,0.137,0.006,0.199-0.015c0.045-0.002,0.09-0.005,0.137-0.015c0.176-0.024,0.27-0.098,0.342-0.264
		c0.031-0.021,0.062-0.049,0.088-0.08c0.041-0.05,0.072-0.121,0.094-0.199c0.055-0.064,0.105-0.148,0.158-0.262
		c0.1-0.064,0.191-0.145,0.285-0.242c0.061-0.062,0.105-0.138,0.143-0.242c0.068,0.015,0.145,0.01,0.209-0.008
		c0.074-0.021,0.143-0.062,0.195-0.121c0.107-0.113,0.176-0.32,0.146-0.485c0.043-0.163,0.061-0.349,0.076-0.531
		c0.006-0.019,0.008-0.038,0.01-0.062c0.041-0.041,0.088-0.092,0.129-0.146c0.049-0.021,0.096-0.053,0.137-0.091
		c0.197-0.193,0.361-0.336,0.518-0.452c0.078-0.058,0.09-0.045,0.113-0.139c0.039-0.052,0.121-0.118,0.199-0.188
		c0.271-0.238,0.643-0.565,0.375-0.945c-0.07-0.105-0.191-0.174-0.318-0.186c-0.145-0.005-0.26,0.038-0.352,0.133
		c-0.035,0.036-0.07,0.074-0.104,0.106c0.039-0.05,0.096-0.108,0.146-0.165c0.006-0.008,0.02-0.012,0.023-0.02l0.096-0.113
		c0.08-0.09,0.148-0.172,0.201-0.243l0.195-0.233c0.023-0.019,0.049-0.029,0.068-0.052c0.5-0.571,0.979-1.16,1.412-1.729
		l0.035-0.043c0.004-0.004,0.006-0.01,0.008-0.015c0.594-0.78,1.094-1.519,1.42-2.103c0.043-0.08,0.061-0.17,0.053-0.254
		c0.186-0.116,0.32-0.364,0.434-0.566l0.172-0.3c0.16-0.265,0.271-0.449,0.332-0.604c0.104-0.131,0.293-0.395,0.361-0.638
		c0.047-0.05,0.088-0.131,0.109-0.194c0.023-0.07,0.09-0.197,0.164-0.344c0.082-0.162,0.17-0.34,0.238-0.5
		c0.002-0.005,0.004-0.01,0.006-0.012c0.033-0.051,0.133-0.212,0.176-0.398c0.008-0.011,0.018-0.023,0.021-0.037
		c0.074-0.136,0.1-0.228,0.096-0.256c0.096-0.103,0.172-0.197,0.143-0.335c0.053-0.106,0.166-0.323,0.033-0.551
		c-0.041-0.069-0.109-0.133-0.188-0.174c0.002-0.009,0.002-0.013,0.002-0.015c0.053-0.055,0.092-0.121,0.107-0.193
		c0.059-0.206,0.215-0.571,0.307-0.79c0.027-0.073,0.039-0.151,0.027-0.228c0.033-0.057,0.07-0.132,0.105-0.231
		c0.139-0.382,0.277-0.776,0.414-1.177c0.004-0.004,0.006-0.004,0.01-0.006c0.102-0.037,0.223-0.119,0.277-0.302
		c0.035-0.05,0.059-0.106,0.07-0.17c0.066-0.099,0.098-0.188,0.111-0.271c0.055-0.127,0.092-0.269,0.127-0.407
		c0.023-0.084,0.041-0.165,0.1-0.316c0.078-0.358,0.166-0.663,0.238-0.927l0.484-1.857c0.02-0.063,0.021-0.129,0.008-0.192
		c0.057-0.359,0.174-1.205,0.197-1.61c0.02-0.088,0.047-0.211,0.096-0.373C72.493,38.461,72.374,38.229,72.163,38.148z"/>
	<path fill="#3A3A3A" d="M9.697,16.667c0.06,0.008,0.119,0.013,0.181,0.013c0.54,0,1.016-0.359,1.162-0.884
		c0.138-0.233,0.193-0.519,0.146-0.806l-0.039-0.24c-0.097-0.585-0.569-1.002-1.202-1.009c-0.596,0.004-1.099,0.44-1.187,1.03
		l-0.077,0.52C8.582,15.951,9.034,16.566,9.697,16.667z"/>
</g>
</svg>
